<svg width="14" height="10" viewBox="0 0 14 10" fill="none" xmlns="http://www.w3.org/2000/svg">
<path fill-rule="evenodd" clip-rule="evenodd" d="M4 1.25C4 0.835786 4.33579 0.5 4.75 0.5H13.25C13.6642 0.5 14 0.835786 14 1.25C14 1.66421 13.6642 2 13.25 2H4.75C4.33579 2 4 1.66421 4 1.25Z" fill="#F5F5F7"/>
<path fill-rule="evenodd" clip-rule="evenodd" d="M0 9.25C0 8.83579 0.335786 8.5 0.75 8.5H9.25C9.66421 8.5 10 8.83579 10 9.25C10 9.66421 9.66421 10 9.25 10H0.75C0.335786 10 0 9.66421 0 9.25Z" fill="#F5F5F7"/>
<path fill-rule="evenodd" clip-rule="evenodd" d="M0 5.25C0 4.83579 0.335786 4.5 0.75 4.5H13.25C13.6642 4.5 14 4.83579 14 5.25C14 5.66421 13.6642 6 13.25 6H0.75C0.335786 6 0 5.66421 0 5.25Z" fill="#F5F5F7"/>
</svg>
